<mxfile host="www.draw.io" modified="2020-02-11T22:37:37.430Z" agent="Mozilla/5.0 (Windows NT 10.0; Win64; x64) AppleWebKit/537.36 (KHTML, like Gecko) Chrome/79.0.3945.130 Safari/537.36" etag="4dbIgyEcvWdIUsUYHbeY" version="12.6.7" type="github" pages="2">
  <diagram name="Page-1" id="6qmY6R-QdTtVW79NaYPo">
    <mxGraphModel dx="3980" dy="708" grid="1" gridSize="10" guides="1" tooltips="1" connect="1" arrows="1" fold="1" page="1" pageScale="1" pageWidth="1100" pageHeight="850" math="0" shadow="0">
      <root>
        <mxCell id="Ajm1KAYPgJtNrC5xxtVR-0"/>
        <mxCell id="Ajm1KAYPgJtNrC5xxtVR-1" parent="Ajm1KAYPgJtNrC5xxtVR-0"/>
        <mxCell id="Ajm1KAYPgJtNrC5xxtVR-2" value="" style="rounded=0;whiteSpace=wrap;html=1;" parent="Ajm1KAYPgJtNrC5xxtVR-1" vertex="1">
          <mxGeometry x="-2000" y="290" width="160" height="460" as="geometry"/>
        </mxCell>
        <mxCell id="Ajm1KAYPgJtNrC5xxtVR-3" value="" style="rounded=0;whiteSpace=wrap;html=1;" parent="Ajm1KAYPgJtNrC5xxtVR-1" vertex="1">
          <mxGeometry x="-2085" y="520" width="40" height="50" as="geometry"/>
        </mxCell>
        <mxCell id="Ajm1KAYPgJtNrC5xxtVR-4" value="" style="rounded=0;whiteSpace=wrap;html=1;" parent="Ajm1KAYPgJtNrC5xxtVR-1" vertex="1">
          <mxGeometry x="-2100" y="330" width="70" height="40" as="geometry"/>
        </mxCell>
        <mxCell id="Ajm1KAYPgJtNrC5xxtVR-5" value="" style="rounded=0;whiteSpace=wrap;html=1;" parent="Ajm1KAYPgJtNrC5xxtVR-1" vertex="1">
          <mxGeometry x="-2075" y="370" width="20" height="10" as="geometry"/>
        </mxCell>
        <mxCell id="Ajm1KAYPgJtNrC5xxtVR-6" value="" style="rounded=0;whiteSpace=wrap;html=1;snapToPoint=0;" parent="Ajm1KAYPgJtNrC5xxtVR-1" vertex="1">
          <mxGeometry x="-2082.5" y="522.5" width="35" height="43.5" as="geometry"/>
        </mxCell>
        <mxCell id="Ajm1KAYPgJtNrC5xxtVR-7" value="" style="rounded=0;whiteSpace=wrap;html=1;" parent="Ajm1KAYPgJtNrC5xxtVR-1" vertex="1">
          <mxGeometry x="-2075" y="433" width="20" height="30" as="geometry"/>
        </mxCell>
        <mxCell id="Ajm1KAYPgJtNrC5xxtVR-8" value="" style="rounded=0;whiteSpace=wrap;html=1;" parent="Ajm1KAYPgJtNrC5xxtVR-1" vertex="1">
          <mxGeometry x="-2072.5" y="436" width="15" height="21" as="geometry"/>
        </mxCell>
        <mxCell id="Ajm1KAYPgJtNrC5xxtVR-9" value="Welcome&lt;br&gt;Client&lt;br&gt;(App.js)" style="rounded=0;whiteSpace=wrap;html=1;" parent="Ajm1KAYPgJtNrC5xxtVR-1" vertex="1">
          <mxGeometry x="-1980" y="312.5" width="120" height="415" as="geometry"/>
        </mxCell>
        <mxCell id="Ajm1KAYPgJtNrC5xxtVR-10" value="Spacewar&lt;br&gt;Client" style="rounded=0;whiteSpace=wrap;html=1;" parent="Ajm1KAYPgJtNrC5xxtVR-1" vertex="1">
          <mxGeometry x="-1970" y="600" width="100" height="110" as="geometry"/>
        </mxCell>
        <mxCell id="Ajm1KAYPgJtNrC5xxtVR-11" value="Welcome&lt;br&gt;Server" style="rounded=0;whiteSpace=wrap;html=1;" parent="Ajm1KAYPgJtNrC5xxtVR-1" vertex="1">
          <mxGeometry x="-1620" y="300" width="130" height="70" as="geometry"/>
        </mxCell>
        <mxCell id="Ajm1KAYPgJtNrC5xxtVR-12" style="edgeStyle=orthogonalEdgeStyle;rounded=0;orthogonalLoop=1;jettySize=auto;html=1;exitX=0.5;exitY=1;exitDx=0;exitDy=0;entryX=0.5;entryY=0;entryDx=0;entryDy=0;" parent="Ajm1KAYPgJtNrC5xxtVR-1" source="Ajm1KAYPgJtNrC5xxtVR-13" target="Ajm1KAYPgJtNrC5xxtVR-15" edge="1">
          <mxGeometry relative="1" as="geometry"/>
        </mxCell>
        <mxCell id="Ajm1KAYPgJtNrC5xxtVR-13" value="Matchmaker&lt;br&gt;Server" style="rounded=0;whiteSpace=wrap;html=1;" parent="Ajm1KAYPgJtNrC5xxtVR-1" vertex="1">
          <mxGeometry x="-1620" y="420" width="130" height="58" as="geometry"/>
        </mxCell>
        <mxCell id="Ajm1KAYPgJtNrC5xxtVR-14" value="Spacewar&lt;br&gt;Server&lt;br&gt;Instance" style="rounded=0;whiteSpace=wrap;html=1;" parent="Ajm1KAYPgJtNrC5xxtVR-1" vertex="1">
          <mxGeometry x="-1620" y="610" width="130" height="90" as="geometry"/>
        </mxCell>
        <mxCell id="Ajm1KAYPgJtNrC5xxtVR-15" value="Instance Manager" style="rounded=0;whiteSpace=wrap;html=1;" parent="Ajm1KAYPgJtNrC5xxtVR-1" vertex="1">
          <mxGeometry x="-1620" y="477" width="130" height="53" as="geometry"/>
        </mxCell>
        <mxCell id="Ajm1KAYPgJtNrC5xxtVR-16" value="" style="endArrow=classic;html=1;exitX=1;exitY=0.5;exitDx=0;exitDy=0;entryX=0;entryY=0.5;entryDx=0;entryDy=0;" parent="Ajm1KAYPgJtNrC5xxtVR-1" source="Ajm1KAYPgJtNrC5xxtVR-15" target="D3kGs7h_7CpqP5WuoXMM-0" edge="1">
          <mxGeometry width="50" height="50" relative="1" as="geometry">
            <mxPoint x="-2050" y="710" as="sourcePoint"/>
            <mxPoint x="-2000" y="660" as="targetPoint"/>
            <Array as="points">
              <mxPoint x="-1430" y="504"/>
              <mxPoint x="-1430" y="534"/>
            </Array>
          </mxGeometry>
        </mxCell>
        <mxCell id="Ajm1KAYPgJtNrC5xxtVR-17" value="" style="shape=cylinder;whiteSpace=wrap;html=1;boundedLbl=1;backgroundOutline=1;" parent="Ajm1KAYPgJtNrC5xxtVR-1" vertex="1">
          <mxGeometry x="-1407.5" y="370" width="91.53" height="80" as="geometry"/>
        </mxCell>
        <mxCell id="Ajm1KAYPgJtNrC5xxtVR-18" value="Games" style="text;html=1;align=center;verticalAlign=middle;resizable=0;points=[];autosize=1;" parent="Ajm1KAYPgJtNrC5xxtVR-1" vertex="1">
          <mxGeometry x="-1386.73" y="408" width="50" height="20" as="geometry"/>
        </mxCell>
        <mxCell id="Ajm1KAYPgJtNrC5xxtVR-19" value="Desktop" style="text;html=1;strokeColor=none;fillColor=none;align=center;verticalAlign=middle;whiteSpace=wrap;rounded=0;" parent="Ajm1KAYPgJtNrC5xxtVR-1" vertex="1">
          <mxGeometry x="-2085" y="310" width="40" height="20" as="geometry"/>
        </mxCell>
        <mxCell id="Ajm1KAYPgJtNrC5xxtVR-20" value="Phone" style="text;html=1;strokeColor=none;fillColor=none;align=center;verticalAlign=middle;whiteSpace=wrap;rounded=0;" parent="Ajm1KAYPgJtNrC5xxtVR-1" vertex="1">
          <mxGeometry x="-2085" y="413" width="40" height="20" as="geometry"/>
        </mxCell>
        <mxCell id="Ajm1KAYPgJtNrC5xxtVR-21" value="Tablet" style="text;html=1;strokeColor=none;fillColor=none;align=center;verticalAlign=middle;whiteSpace=wrap;rounded=0;" parent="Ajm1KAYPgJtNrC5xxtVR-1" vertex="1">
          <mxGeometry x="-2087.5" y="500" width="40" height="20" as="geometry"/>
        </mxCell>
        <mxCell id="Ajm1KAYPgJtNrC5xxtVR-22" value="" style="endArrow=classic;html=1;" parent="Ajm1KAYPgJtNrC5xxtVR-1" edge="1">
          <mxGeometry width="50" height="50" relative="1" as="geometry">
            <mxPoint x="-1618" y="332" as="sourcePoint"/>
            <mxPoint x="-1858" y="332" as="targetPoint"/>
          </mxGeometry>
        </mxCell>
        <mxCell id="Ajm1KAYPgJtNrC5xxtVR-23" value="Browser" style="text;html=1;strokeColor=none;fillColor=none;align=center;verticalAlign=middle;whiteSpace=wrap;rounded=0;" parent="Ajm1KAYPgJtNrC5xxtVR-1" vertex="1">
          <mxGeometry x="-1990" y="290" width="40" height="20" as="geometry"/>
        </mxCell>
        <mxCell id="Ajm1KAYPgJtNrC5xxtVR-24" value="GET spacewar.html" style="text;html=1;strokeColor=none;fillColor=none;align=center;verticalAlign=middle;whiteSpace=wrap;rounded=0;" parent="Ajm1KAYPgJtNrC5xxtVR-1" vertex="1">
          <mxGeometry x="-1785" y="290" width="110" height="20" as="geometry"/>
        </mxCell>
        <mxCell id="Ajm1KAYPgJtNrC5xxtVR-25" value="spacewar.html&lt;br&gt;welcome_client.js" style="text;html=1;strokeColor=none;fillColor=none;align=center;verticalAlign=middle;whiteSpace=wrap;rounded=0;" parent="Ajm1KAYPgJtNrC5xxtVR-1" vertex="1">
          <mxGeometry x="-1755" y="340" width="40" height="20" as="geometry"/>
        </mxCell>
        <mxCell id="Ajm1KAYPgJtNrC5xxtVR-26" value="GET lobby/ls, POST lobby/new&lt;br&gt;PUT lobby/play, DELETE lobby/rm" style="text;html=1;strokeColor=none;fillColor=none;align=center;verticalAlign=middle;whiteSpace=wrap;rounded=0;" parent="Ajm1KAYPgJtNrC5xxtVR-1" vertex="1">
          <mxGeometry x="-1860" y="413" width="250" height="40" as="geometry"/>
        </mxCell>
        <mxCell id="Ajm1KAYPgJtNrC5xxtVR-27" value="" style="endArrow=classic;html=1;entryX=0.96;entryY=1.05;entryDx=0;entryDy=0;entryPerimeter=0;" parent="Ajm1KAYPgJtNrC5xxtVR-1" target="Ajm1KAYPgJtNrC5xxtVR-26" edge="1">
          <mxGeometry width="50" height="50" relative="1" as="geometry">
            <mxPoint x="-1857" y="455" as="sourcePoint"/>
            <mxPoint x="-2050" y="670" as="targetPoint"/>
          </mxGeometry>
        </mxCell>
        <mxCell id="Ajm1KAYPgJtNrC5xxtVR-28" value="JSON { g1 ... gN }" style="text;html=1;strokeColor=none;fillColor=none;align=center;verticalAlign=middle;whiteSpace=wrap;rounded=0;" parent="Ajm1KAYPgJtNrC5xxtVR-1" vertex="1">
          <mxGeometry x="-1812.5" y="457" width="162.5" height="20" as="geometry"/>
        </mxCell>
        <mxCell id="Ajm1KAYPgJtNrC5xxtVR-29" value="" style="endArrow=classic;html=1;exitX=1.01;exitY=0.182;exitDx=0;exitDy=0;exitPerimeter=0;" parent="Ajm1KAYPgJtNrC5xxtVR-1" source="Ajm1KAYPgJtNrC5xxtVR-10" edge="1">
          <mxGeometry width="50" height="50" relative="1" as="geometry">
            <mxPoint x="-2100" y="780" as="sourcePoint"/>
            <mxPoint x="-1620" y="620" as="targetPoint"/>
          </mxGeometry>
        </mxCell>
        <mxCell id="Ajm1KAYPgJtNrC5xxtVR-30" value="Connect&amp;nbsp; srv:port_i" style="text;html=1;strokeColor=none;fillColor=none;align=center;verticalAlign=middle;whiteSpace=wrap;rounded=0;" parent="Ajm1KAYPgJtNrC5xxtVR-1" vertex="1">
          <mxGeometry x="-1795" y="600" width="120" height="20" as="geometry"/>
        </mxCell>
        <mxCell id="Ajm1KAYPgJtNrC5xxtVR-31" value="State { ob1, ..., obK }" style="text;html=1;strokeColor=none;fillColor=none;align=center;verticalAlign=middle;whiteSpace=wrap;rounded=0;" parent="Ajm1KAYPgJtNrC5xxtVR-1" vertex="1">
          <mxGeometry x="-1815" y="640" width="140" height="20" as="geometry"/>
        </mxCell>
        <mxCell id="Ajm1KAYPgJtNrC5xxtVR-32" value="" style="endArrow=classic;html=1;exitX=0;exitY=0.5;exitDx=0;exitDy=0;entryX=1;entryY=0.5;entryDx=0;entryDy=0;" parent="Ajm1KAYPgJtNrC5xxtVR-1" source="Ajm1KAYPgJtNrC5xxtVR-14" target="Ajm1KAYPgJtNrC5xxtVR-10" edge="1">
          <mxGeometry width="50" height="50" relative="1" as="geometry">
            <mxPoint x="-2100" y="780" as="sourcePoint"/>
            <mxPoint x="-2050" y="730" as="targetPoint"/>
          </mxGeometry>
        </mxCell>
        <mxCell id="Ajm1KAYPgJtNrC5xxtVR-33" value="" style="endArrow=classic;html=1;entryX=0;entryY=0.25;entryDx=0;entryDy=0;" parent="Ajm1KAYPgJtNrC5xxtVR-1" target="Ajm1KAYPgJtNrC5xxtVR-11" edge="1">
          <mxGeometry width="50" height="50" relative="1" as="geometry">
            <mxPoint x="-1838" y="318" as="sourcePoint"/>
            <mxPoint x="-2050" y="710" as="targetPoint"/>
          </mxGeometry>
        </mxCell>
        <mxCell id="Ajm1KAYPgJtNrC5xxtVR-34" value="" style="endArrow=classic;html=1;entryX=0;entryY=0.75;entryDx=0;entryDy=0;exitX=1;exitY=0.691;exitDx=0;exitDy=0;exitPerimeter=0;" parent="Ajm1KAYPgJtNrC5xxtVR-1" source="Ajm1KAYPgJtNrC5xxtVR-10" target="Ajm1KAYPgJtNrC5xxtVR-14" edge="1">
          <mxGeometry width="50" height="50" relative="1" as="geometry">
            <mxPoint x="-1860" y="678" as="sourcePoint"/>
            <mxPoint x="-2050" y="770" as="targetPoint"/>
          </mxGeometry>
        </mxCell>
        <mxCell id="Ajm1KAYPgJtNrC5xxtVR-35" value="Control { Right | Left | Burn&amp;nbsp; Fire }" style="text;html=1;strokeColor=none;fillColor=none;align=center;verticalAlign=middle;whiteSpace=wrap;rounded=0;" parent="Ajm1KAYPgJtNrC5xxtVR-1" vertex="1">
          <mxGeometry x="-1840" y="680" width="230" height="20" as="geometry"/>
        </mxCell>
        <mxCell id="Ajm1KAYPgJtNrC5xxtVR-36" value="" style="endArrow=classic;startArrow=classic;html=1;exitX=1;exitY=0.5;exitDx=0;exitDy=0;entryX=0;entryY=0.5;entryDx=0;entryDy=0;" parent="Ajm1KAYPgJtNrC5xxtVR-1" source="Ajm1KAYPgJtNrC5xxtVR-13" target="Ajm1KAYPgJtNrC5xxtVR-17" edge="1">
          <mxGeometry width="50" height="50" relative="1" as="geometry">
            <mxPoint x="-1440" y="520" as="sourcePoint"/>
            <mxPoint x="-1390" y="470" as="targetPoint"/>
            <Array as="points">
              <mxPoint x="-1460" y="449"/>
              <mxPoint x="-1460" y="410"/>
            </Array>
          </mxGeometry>
        </mxCell>
        <mxCell id="Ajm1KAYPgJtNrC5xxtVR-37" value="" style="shape=cylinder;whiteSpace=wrap;html=1;boundedLbl=1;backgroundOutline=1;" parent="Ajm1KAYPgJtNrC5xxtVR-1" vertex="1">
          <mxGeometry x="-1283.27" y="490" width="96.53" height="88.5" as="geometry"/>
        </mxCell>
        <mxCell id="Ajm1KAYPgJtNrC5xxtVR-38" value="Container Repository&lt;br&gt;(Docker Hub)" style="text;html=1;strokeColor=none;fillColor=none;align=center;verticalAlign=middle;whiteSpace=wrap;rounded=0;" parent="Ajm1KAYPgJtNrC5xxtVR-1" vertex="1">
          <mxGeometry x="-1285" y="534.25" width="100" height="20" as="geometry"/>
        </mxCell>
        <mxCell id="Ajm1KAYPgJtNrC5xxtVR-40" value="Pulls" style="text;html=1;strokeColor=none;fillColor=none;align=center;verticalAlign=middle;whiteSpace=wrap;rounded=0;" parent="Ajm1KAYPgJtNrC5xxtVR-1" vertex="1">
          <mxGeometry x="-1337.5" y="510" width="40" height="20" as="geometry"/>
        </mxCell>
        <mxCell id="Ajm1KAYPgJtNrC5xxtVR-41" value="Spacewar&lt;br&gt;Client" style="rounded=0;whiteSpace=wrap;html=1;" parent="Ajm1KAYPgJtNrC5xxtVR-1" vertex="1">
          <mxGeometry x="-1282.5" y="600" width="100" height="100" as="geometry"/>
        </mxCell>
        <mxCell id="Ajm1KAYPgJtNrC5xxtVR-42" value="" style="endArrow=classic;html=1;" parent="Ajm1KAYPgJtNrC5xxtVR-1" edge="1">
          <mxGeometry width="50" height="50" relative="1" as="geometry">
            <mxPoint x="-1284" y="624" as="sourcePoint"/>
            <mxPoint x="-1497" y="624" as="targetPoint"/>
          </mxGeometry>
        </mxCell>
        <mxCell id="Ajm1KAYPgJtNrC5xxtVR-43" value="" style="endArrow=classic;html=1;entryX=-0.035;entryY=0.57;entryDx=0;entryDy=0;entryPerimeter=0;" parent="Ajm1KAYPgJtNrC5xxtVR-1" target="Ajm1KAYPgJtNrC5xxtVR-41" edge="1">
          <mxGeometry width="50" height="50" relative="1" as="geometry">
            <mxPoint x="-1499" y="655" as="sourcePoint"/>
            <mxPoint x="-1370" y="655" as="targetPoint"/>
          </mxGeometry>
        </mxCell>
        <mxCell id="Ajm1KAYPgJtNrC5xxtVR-44" value="" style="endArrow=classic;html=1;entryX=1;entryY=0.75;entryDx=0;entryDy=0;" parent="Ajm1KAYPgJtNrC5xxtVR-1" target="Ajm1KAYPgJtNrC5xxtVR-14" edge="1">
          <mxGeometry width="50" height="50" relative="1" as="geometry">
            <mxPoint x="-1282" y="678" as="sourcePoint"/>
            <mxPoint x="-2000" y="770" as="targetPoint"/>
          </mxGeometry>
        </mxCell>
        <mxCell id="Ajm1KAYPgJtNrC5xxtVR-45" value="Connect&amp;nbsp; srv:port_i" style="text;html=1;strokeColor=none;fillColor=none;align=center;verticalAlign=middle;whiteSpace=wrap;rounded=0;" parent="Ajm1KAYPgJtNrC5xxtVR-1" vertex="1">
          <mxGeometry x="-1456" y="605" width="120" height="20" as="geometry"/>
        </mxCell>
        <mxCell id="Ajm1KAYPgJtNrC5xxtVR-46" value="State { ob1, ..., obK }" style="text;html=1;strokeColor=none;fillColor=none;align=center;verticalAlign=middle;whiteSpace=wrap;rounded=0;" parent="Ajm1KAYPgJtNrC5xxtVR-1" vertex="1">
          <mxGeometry x="-1460" y="636" width="140" height="20" as="geometry"/>
        </mxCell>
        <mxCell id="Ajm1KAYPgJtNrC5xxtVR-47" value="Control { Right | Left | Burn&amp;nbsp; Fire }" style="text;html=1;strokeColor=none;fillColor=none;align=center;verticalAlign=middle;whiteSpace=wrap;rounded=0;" parent="Ajm1KAYPgJtNrC5xxtVR-1" vertex="1">
          <mxGeometry x="-1495" y="680" width="230" height="20" as="geometry"/>
        </mxCell>
        <mxCell id="Ajm1KAYPgJtNrC5xxtVR-48" value="Player 1" style="text;html=1;strokeColor=none;fillColor=none;align=center;verticalAlign=middle;whiteSpace=wrap;rounded=0;fontStyle=2" parent="Ajm1KAYPgJtNrC5xxtVR-1" vertex="1">
          <mxGeometry x="-1950" y="690" width="60" height="20" as="geometry"/>
        </mxCell>
        <mxCell id="Ajm1KAYPgJtNrC5xxtVR-49" value="Player 2" style="text;html=1;strokeColor=none;fillColor=none;align=center;verticalAlign=middle;whiteSpace=wrap;rounded=0;fontStyle=2" parent="Ajm1KAYPgJtNrC5xxtVR-1" vertex="1">
          <mxGeometry x="-1265" y="670" width="60" height="20" as="geometry"/>
        </mxCell>
        <mxCell id="Ajm1KAYPgJtNrC5xxtVR-50" value="" style="endArrow=none;html=1;" parent="Ajm1KAYPgJtNrC5xxtVR-1" edge="1">
          <mxGeometry width="50" height="50" relative="1" as="geometry">
            <mxPoint x="-2130" y="790" as="sourcePoint"/>
            <mxPoint x="-2130" y="150" as="targetPoint"/>
          </mxGeometry>
        </mxCell>
        <mxCell id="Ajm1KAYPgJtNrC5xxtVR-51" value="" style="endArrow=none;html=1;" parent="Ajm1KAYPgJtNrC5xxtVR-1" edge="1">
          <mxGeometry width="50" height="50" relative="1" as="geometry">
            <mxPoint x="-2130" y="790" as="sourcePoint"/>
            <mxPoint x="-1130" y="790" as="targetPoint"/>
          </mxGeometry>
        </mxCell>
        <mxCell id="Ajm1KAYPgJtNrC5xxtVR-52" value="" style="endArrow=none;html=1;" parent="Ajm1KAYPgJtNrC5xxtVR-1" edge="1">
          <mxGeometry width="50" height="50" relative="1" as="geometry">
            <mxPoint x="-1130" y="150" as="sourcePoint"/>
            <mxPoint x="-1130" y="790" as="targetPoint"/>
          </mxGeometry>
        </mxCell>
        <mxCell id="Ajm1KAYPgJtNrC5xxtVR-53" value="" style="endArrow=none;html=1;" parent="Ajm1KAYPgJtNrC5xxtVR-1" edge="1">
          <mxGeometry width="50" height="50" relative="1" as="geometry">
            <mxPoint x="-2130" y="150" as="sourcePoint"/>
            <mxPoint x="-1130" y="150" as="targetPoint"/>
          </mxGeometry>
        </mxCell>
        <mxCell id="Ajm1KAYPgJtNrC5xxtVR-54" value="Multiplayer Spacewar" style="text;html=1;strokeColor=none;fillColor=none;align=center;verticalAlign=middle;whiteSpace=wrap;rounded=0;fontSize=27;" parent="Ajm1KAYPgJtNrC5xxtVR-1" vertex="1">
          <mxGeometry x="-2235" y="166" width="630" height="20" as="geometry"/>
        </mxCell>
        <mxCell id="Ajm1KAYPgJtNrC5xxtVR-55" value="" style="endArrow=none;html=1;fontSize=27;" parent="Ajm1KAYPgJtNrC5xxtVR-1" edge="1">
          <mxGeometry width="50" height="50" relative="1" as="geometry">
            <mxPoint x="-1130" y="210" as="sourcePoint"/>
            <mxPoint x="-2130" y="210" as="targetPoint"/>
          </mxGeometry>
        </mxCell>
        <mxCell id="Ajm1KAYPgJtNrC5xxtVR-56" value="" style="endArrow=none;html=1;fontSize=27;" parent="Ajm1KAYPgJtNrC5xxtVR-1" edge="1">
          <mxGeometry width="50" height="50" relative="1" as="geometry">
            <mxPoint x="-1770" y="210" as="sourcePoint"/>
            <mxPoint x="-1770" y="150" as="targetPoint"/>
          </mxGeometry>
        </mxCell>
        <mxCell id="Ajm1KAYPgJtNrC5xxtVR-57" value="" style="endArrow=none;html=1;fontSize=27;" parent="Ajm1KAYPgJtNrC5xxtVR-1" edge="1">
          <mxGeometry width="50" height="50" relative="1" as="geometry">
            <mxPoint x="-1130" y="180" as="sourcePoint"/>
            <mxPoint x="-1770" y="180" as="targetPoint"/>
          </mxGeometry>
        </mxCell>
        <mxCell id="Ajm1KAYPgJtNrC5xxtVR-58" value="" style="endArrow=none;html=1;fontSize=27;" parent="Ajm1KAYPgJtNrC5xxtVR-1" edge="1">
          <mxGeometry width="50" height="50" relative="1" as="geometry">
            <mxPoint x="-1330" y="210" as="sourcePoint"/>
            <mxPoint x="-1330" y="150" as="targetPoint"/>
          </mxGeometry>
        </mxCell>
        <mxCell id="Ajm1KAYPgJtNrC5xxtVR-59" value="Mark R Cornwell" style="text;html=1;strokeColor=none;fillColor=none;align=center;verticalAlign=middle;whiteSpace=wrap;rounded=0;fontSize=17;" parent="Ajm1KAYPgJtNrC5xxtVR-1" vertex="1">
          <mxGeometry x="-1320" y="155" width="180" height="20" as="geometry"/>
        </mxCell>
        <mxCell id="Ajm1KAYPgJtNrC5xxtVR-60" value="spacewar-v4.drawio" style="text;html=1;strokeColor=none;fillColor=none;align=center;verticalAlign=middle;whiteSpace=wrap;rounded=0;fontSize=17;" parent="Ajm1KAYPgJtNrC5xxtVR-1" vertex="1">
          <mxGeometry x="-1760" y="155" width="190" height="20" as="geometry"/>
        </mxCell>
        <mxCell id="Ajm1KAYPgJtNrC5xxtVR-61" value="https://github/markcornwell/spacewar/master" style="text;html=1;strokeColor=none;fillColor=none;align=center;verticalAlign=middle;whiteSpace=wrap;rounded=0;fontSize=17;" parent="Ajm1KAYPgJtNrC5xxtVR-1" vertex="1">
          <mxGeometry x="-1730" y="182" width="320" height="28" as="geometry"/>
        </mxCell>
        <mxCell id="Ajm1KAYPgJtNrC5xxtVR-62" value="January 27, 2020" style="text;html=1;strokeColor=none;fillColor=none;align=center;verticalAlign=middle;whiteSpace=wrap;rounded=0;fontSize=17;" parent="Ajm1KAYPgJtNrC5xxtVR-1" vertex="1">
          <mxGeometry x="-1332.5" y="186" width="200" height="20" as="geometry"/>
        </mxCell>
        <mxCell id="D3kGs7h_7CpqP5WuoXMM-0" value="Docker" style="rounded=0;whiteSpace=wrap;html=1;" parent="Ajm1KAYPgJtNrC5xxtVR-1" vertex="1">
          <mxGeometry x="-1388.47" y="507" width="50.97" height="53" as="geometry"/>
        </mxCell>
        <mxCell id="D3kGs7h_7CpqP5WuoXMM-3" value="" style="endArrow=classic;html=1;entryX=0;entryY=0.5;entryDx=0;entryDy=0;exitX=1;exitY=0.5;exitDx=0;exitDy=0;" parent="Ajm1KAYPgJtNrC5xxtVR-1" source="D3kGs7h_7CpqP5WuoXMM-0" target="Ajm1KAYPgJtNrC5xxtVR-37" edge="1">
          <mxGeometry width="50" height="50" relative="1" as="geometry">
            <mxPoint x="-2258.4700000000003" y="1020" as="sourcePoint"/>
            <mxPoint x="-2208.4700000000003" y="970" as="targetPoint"/>
          </mxGeometry>
        </mxCell>
        <mxCell id="D3kGs7h_7CpqP5WuoXMM-5" value="" style="endArrow=classic;html=1;entryX=0.75;entryY=0;entryDx=0;entryDy=0;exitX=0.5;exitY=1;exitDx=0;exitDy=0;dashed=1;" parent="Ajm1KAYPgJtNrC5xxtVR-1" source="D3kGs7h_7CpqP5WuoXMM-0" target="Ajm1KAYPgJtNrC5xxtVR-14" edge="1">
          <mxGeometry width="50" height="50" relative="1" as="geometry">
            <mxPoint x="-2258.4700000000003" y="1020" as="sourcePoint"/>
            <mxPoint x="-2208.4700000000003" y="970" as="targetPoint"/>
            <Array as="points">
              <mxPoint x="-1363.47" y="580"/>
              <mxPoint x="-1522" y="580"/>
            </Array>
          </mxGeometry>
        </mxCell>
        <mxCell id="D3kGs7h_7CpqP5WuoXMM-6" value="run / start / stop" style="text;html=1;strokeColor=none;fillColor=none;align=center;verticalAlign=middle;whiteSpace=wrap;rounded=0;" parent="Ajm1KAYPgJtNrC5xxtVR-1" vertex="1">
          <mxGeometry x="-1490" y="480" width="100" height="20" as="geometry"/>
        </mxCell>
        <mxCell id="wJzSMmqesGc6HIKHXTjG-3" value="" style="endArrow=classic;html=1;entryX=0.5;entryY=1;entryDx=0;entryDy=0;exitX=0.5;exitY=0;exitDx=0;exitDy=0;" parent="Ajm1KAYPgJtNrC5xxtVR-1" source="Ajm1KAYPgJtNrC5xxtVR-14" target="Ajm1KAYPgJtNrC5xxtVR-15" edge="1">
          <mxGeometry width="50" height="50" relative="1" as="geometry">
            <mxPoint x="-2230" y="860" as="sourcePoint"/>
            <mxPoint x="-2180" y="810" as="targetPoint"/>
          </mxGeometry>
        </mxCell>
        <mxCell id="wJzSMmqesGc6HIKHXTjG-4" value="Status" style="text;html=1;strokeColor=none;fillColor=none;align=center;verticalAlign=middle;whiteSpace=wrap;rounded=0;" parent="Ajm1KAYPgJtNrC5xxtVR-1" vertex="1">
          <mxGeometry x="-1600" y="560" width="40" height="20" as="geometry"/>
        </mxCell>
        <mxCell id="wJzSMmqesGc6HIKHXTjG-6" value="Control" style="text;html=1;strokeColor=none;fillColor=none;align=center;verticalAlign=middle;whiteSpace=wrap;rounded=0;" parent="Ajm1KAYPgJtNrC5xxtVR-1" vertex="1">
          <mxGeometry x="-1470" y="558.5" width="40" height="20" as="geometry"/>
        </mxCell>
      </root>
    </mxGraphModel>
  </diagram>
  <diagram id="6wdZn-_WosHbFUT7HVRj" name="Page-2">
    <mxGraphModel dx="1026" dy="708" grid="1" gridSize="10" guides="1" tooltips="1" connect="1" arrows="1" fold="1" page="1" pageScale="1" pageWidth="850" pageHeight="1100" math="0" shadow="0">
      <root>
        <mxCell id="9rw7oaXcv6XRZWg7OotB-0"/>
        <mxCell id="9rw7oaXcv6XRZWg7OotB-1" parent="9rw7oaXcv6XRZWg7OotB-0"/>
        <mxCell id="9rw7oaXcv6XRZWg7OotB-3" value="" style="shape=umlLifeline;participant=umlActor;perimeter=lifelinePerimeter;whiteSpace=wrap;html=1;container=1;collapsible=0;recursiveResize=0;verticalAlign=top;spacingTop=36;labelBackgroundColor=#ffffff;outlineConnect=0;" parent="9rw7oaXcv6XRZWg7OotB-1" vertex="1">
          <mxGeometry x="165" y="69" width="20" height="780" as="geometry"/>
        </mxCell>
        <mxCell id="9rw7oaXcv6XRZWg7OotB-39" value="" style="html=1;points=[];perimeter=orthogonalPerimeter;" parent="9rw7oaXcv6XRZWg7OotB-3" vertex="1">
          <mxGeometry x="5" y="60" width="10" height="720" as="geometry"/>
        </mxCell>
        <mxCell id="9rw7oaXcv6XRZWg7OotB-4" value="" style="html=1;points=[];perimeter=orthogonalPerimeter;" parent="9rw7oaXcv6XRZWg7OotB-1" vertex="1">
          <mxGeometry x="267" y="120" width="10" height="54" as="geometry"/>
        </mxCell>
        <mxCell id="9rw7oaXcv6XRZWg7OotB-5" value="get spacewar" style="html=1;verticalAlign=bottom;endArrow=block;entryX=0.2;entryY=0.167;entryDx=0;entryDy=0;entryPerimeter=0;" parent="9rw7oaXcv6XRZWg7OotB-1" source="9rw7oaXcv6XRZWg7OotB-39" target="9rw7oaXcv6XRZWg7OotB-4" edge="1">
          <mxGeometry relative="1" as="geometry">
            <mxPoint x="157" y="134" as="sourcePoint"/>
          </mxGeometry>
        </mxCell>
        <mxCell id="9rw7oaXcv6XRZWg7OotB-6" value="App.js" style="html=1;verticalAlign=bottom;endArrow=open;dashed=1;endSize=8;" parent="9rw7oaXcv6XRZWg7OotB-1" source="9rw7oaXcv6XRZWg7OotB-7" target="9rw7oaXcv6XRZWg7OotB-3" edge="1">
          <mxGeometry x="-0.095" y="-8" relative="1" as="geometry">
            <mxPoint x="157" y="210" as="targetPoint"/>
            <mxPoint as="offset"/>
            <Array as="points">
              <mxPoint x="210" y="160"/>
            </Array>
          </mxGeometry>
        </mxCell>
        <mxCell id="22y1QajGRE7wkvt_u-uF-4" value="" style="edgeStyle=orthogonalEdgeStyle;rounded=0;orthogonalLoop=1;jettySize=auto;html=1;dashed=1;" edge="1" parent="9rw7oaXcv6XRZWg7OotB-1" source="9rw7oaXcv6XRZWg7OotB-7">
          <mxGeometry relative="1" as="geometry">
            <mxPoint x="280" y="170" as="sourcePoint"/>
            <mxPoint x="272" y="910" as="targetPoint"/>
          </mxGeometry>
        </mxCell>
        <mxCell id="9rw7oaXcv6XRZWg7OotB-7" value="" style="shape=umlLifeline;participant=umlBoundary;perimeter=lifelinePerimeter;whiteSpace=wrap;html=1;container=1;collapsible=0;recursiveResize=0;verticalAlign=top;spacingTop=36;labelBackgroundColor=#ffffff;outlineConnect=0;" parent="9rw7oaXcv6XRZWg7OotB-1" vertex="1">
          <mxGeometry x="247" y="64" width="50" height="96" as="geometry"/>
        </mxCell>
        <mxCell id="9rw7oaXcv6XRZWg7OotB-12" value="Welcome&lt;br&gt;Server" style="text;html=1;strokeColor=none;fillColor=none;align=center;verticalAlign=middle;whiteSpace=wrap;rounded=0;" parent="9rw7oaXcv6XRZWg7OotB-1" vertex="1">
          <mxGeometry x="257" y="34" width="40" height="20" as="geometry"/>
        </mxCell>
        <mxCell id="9rw7oaXcv6XRZWg7OotB-14" value="Player 1" style="text;html=1;strokeColor=none;fillColor=none;align=center;verticalAlign=middle;whiteSpace=wrap;rounded=0;" parent="9rw7oaXcv6XRZWg7OotB-1" vertex="1">
          <mxGeometry x="140" y="34" width="70" height="20" as="geometry"/>
        </mxCell>
        <mxCell id="9rw7oaXcv6XRZWg7OotB-15" value="" style="shape=umlLifeline;participant=umlActor;perimeter=lifelinePerimeter;whiteSpace=wrap;html=1;container=1;collapsible=0;recursiveResize=0;verticalAlign=top;spacingTop=36;labelBackgroundColor=#ffffff;outlineConnect=0;" parent="9rw7oaXcv6XRZWg7OotB-1" vertex="1">
          <mxGeometry x="70" y="64" width="20" height="780" as="geometry"/>
        </mxCell>
        <mxCell id="9rw7oaXcv6XRZWg7OotB-40" value="" style="html=1;points=[];perimeter=orthogonalPerimeter;" parent="9rw7oaXcv6XRZWg7OotB-15" vertex="1">
          <mxGeometry x="5" y="105" width="10" height="675" as="geometry"/>
        </mxCell>
        <mxCell id="9rw7oaXcv6XRZWg7OotB-16" value="Player 2" style="text;html=1;strokeColor=none;fillColor=none;align=center;verticalAlign=middle;whiteSpace=wrap;rounded=0;" parent="9rw7oaXcv6XRZWg7OotB-1" vertex="1">
          <mxGeometry x="45" y="34" width="70" height="20" as="geometry"/>
        </mxCell>
        <mxCell id="9rw7oaXcv6XRZWg7OotB-17" value="" style="shape=umlLifeline;participant=umlControl;perimeter=lifelinePerimeter;whiteSpace=wrap;html=1;container=1;collapsible=0;recursiveResize=0;verticalAlign=top;spacingTop=36;labelBackgroundColor=#ffffff;outlineConnect=0;size=46;" parent="9rw7oaXcv6XRZWg7OotB-1" vertex="1">
          <mxGeometry x="340" y="57" width="40" height="853" as="geometry"/>
        </mxCell>
        <mxCell id="9rw7oaXcv6XRZWg7OotB-18" value="" style="html=1;points=[];perimeter=orthogonalPerimeter;" parent="9rw7oaXcv6XRZWg7OotB-17" vertex="1">
          <mxGeometry x="15" y="123" width="10" height="47" as="geometry"/>
        </mxCell>
        <mxCell id="9rw7oaXcv6XRZWg7OotB-22" value="" style="html=1;points=[];perimeter=orthogonalPerimeter;" parent="9rw7oaXcv6XRZWg7OotB-17" vertex="1">
          <mxGeometry x="15" y="293" width="10" height="47" as="geometry"/>
        </mxCell>
        <mxCell id="9rw7oaXcv6XRZWg7OotB-30" value="" style="html=1;points=[];perimeter=orthogonalPerimeter;" parent="9rw7oaXcv6XRZWg7OotB-17" vertex="1">
          <mxGeometry x="15" y="403" width="10" height="97" as="geometry"/>
        </mxCell>
        <mxCell id="22y1QajGRE7wkvt_u-uF-22" value="" style="html=1;points=[];perimeter=orthogonalPerimeter;" vertex="1" parent="9rw7oaXcv6XRZWg7OotB-17">
          <mxGeometry x="15" y="353" width="10" height="37" as="geometry"/>
        </mxCell>
        <mxCell id="22y1QajGRE7wkvt_u-uF-14" value="" style="html=1;points=[];perimeter=orthogonalPerimeter;" vertex="1" parent="9rw7oaXcv6XRZWg7OotB-17">
          <mxGeometry x="15" y="243" width="10" height="37" as="geometry"/>
        </mxCell>
        <mxCell id="9rw7oaXcv6XRZWg7OotB-19" value="get games" style="html=1;verticalAlign=bottom;endArrow=block;" parent="9rw7oaXcv6XRZWg7OotB-1" target="9rw7oaXcv6XRZWg7OotB-17" edge="1" source="9rw7oaXcv6XRZWg7OotB-39">
          <mxGeometry x="0.0582" relative="1" as="geometry">
            <mxPoint x="175" y="214" as="sourcePoint"/>
            <mxPoint as="offset"/>
            <mxPoint x="353" y="188" as="targetPoint"/>
            <Array as="points">
              <mxPoint x="310" y="200"/>
            </Array>
          </mxGeometry>
        </mxCell>
        <mxCell id="9rw7oaXcv6XRZWg7OotB-20" value="{ g1 ... gN }" style="html=1;verticalAlign=bottom;endArrow=open;dashed=1;endSize=8;exitX=0;exitY=0.95;" parent="9rw7oaXcv6XRZWg7OotB-1" source="9rw7oaXcv6XRZWg7OotB-18" target="9rw7oaXcv6XRZWg7OotB-3" edge="1">
          <mxGeometry x="-0.4997" y="5" relative="1" as="geometry">
            <mxPoint x="165" y="316" as="targetPoint"/>
            <mxPoint as="offset"/>
          </mxGeometry>
        </mxCell>
        <mxCell id="9rw7oaXcv6XRZWg7OotB-21" value="Matchmaker" style="text;html=1;strokeColor=none;fillColor=none;align=center;verticalAlign=middle;whiteSpace=wrap;rounded=0;" parent="9rw7oaXcv6XRZWg7OotB-1" vertex="1">
          <mxGeometry x="340" y="34" width="40" height="20" as="geometry"/>
        </mxCell>
        <mxCell id="9rw7oaXcv6XRZWg7OotB-23" value="new game" style="html=1;verticalAlign=bottom;endArrow=block;entryX=-0.2;entryY=0.234;entryDx=0;entryDy=0;entryPerimeter=0;" parent="9rw7oaXcv6XRZWg7OotB-1" target="9rw7oaXcv6XRZWg7OotB-22" edge="1">
          <mxGeometry relative="1" as="geometry">
            <mxPoint x="180" y="361" as="sourcePoint"/>
          </mxGeometry>
        </mxCell>
        <mxCell id="9rw7oaXcv6XRZWg7OotB-24" value="&amp;nbsp;{... g(1,?) ...}" style="html=1;verticalAlign=bottom;endArrow=open;dashed=1;endSize=8;exitX=0.033;exitY=0.621;exitDx=0;exitDy=0;exitPerimeter=0;" parent="9rw7oaXcv6XRZWg7OotB-1" source="9rw7oaXcv6XRZWg7OotB-22" target="9rw7oaXcv6XRZWg7OotB-39" edge="1">
          <mxGeometry x="-0.0266" y="21" relative="1" as="geometry">
            <mxPoint x="285" y="386" as="targetPoint"/>
            <mxPoint as="offset"/>
          </mxGeometry>
        </mxCell>
        <mxCell id="9rw7oaXcv6XRZWg7OotB-26" value="" style="shape=umlLifeline;participant=umlEntity;perimeter=lifelinePerimeter;whiteSpace=wrap;html=1;container=1;collapsible=0;recursiveResize=0;verticalAlign=top;spacingTop=36;labelBackgroundColor=#ffffff;outlineConnect=0;" parent="9rw7oaXcv6XRZWg7OotB-1" vertex="1">
          <mxGeometry x="420" y="60" width="40" height="853" as="geometry"/>
        </mxCell>
        <mxCell id="9rw7oaXcv6XRZWg7OotB-27" value="g(1,2)" style="html=1;verticalAlign=bottom;startArrow=oval;startFill=1;endArrow=block;startSize=8;exitX=1.329;exitY=0.327;exitDx=0;exitDy=0;exitPerimeter=0;entryX=0.5;entryY=0.325;entryDx=0;entryDy=0;entryPerimeter=0;" parent="9rw7oaXcv6XRZWg7OotB-1" source="9rw7oaXcv6XRZWg7OotB-30" target="22y1QajGRE7wkvt_u-uF-25" edge="1">
          <mxGeometry width="60" relative="1" as="geometry">
            <mxPoint x="370" y="500" as="sourcePoint"/>
            <mxPoint x="430" y="489" as="targetPoint"/>
          </mxGeometry>
        </mxCell>
        <mxCell id="9rw7oaXcv6XRZWg7OotB-28" value="&amp;nbsp;Instance Manager" style="text;html=1;strokeColor=none;fillColor=none;align=center;verticalAlign=middle;whiteSpace=wrap;rounded=0;" parent="9rw7oaXcv6XRZWg7OotB-1" vertex="1">
          <mxGeometry x="420" y="30" width="40" height="20" as="geometry"/>
        </mxCell>
        <mxCell id="9rw7oaXcv6XRZWg7OotB-31" value="join game g" style="html=1;verticalAlign=bottom;endArrow=block;exitX=0.92;exitY=0.447;exitDx=0;exitDy=0;exitPerimeter=0;" parent="9rw7oaXcv6XRZWg7OotB-1" source="9rw7oaXcv6XRZWg7OotB-40" target="9rw7oaXcv6XRZWg7OotB-30" edge="1">
          <mxGeometry x="0.0584" y="-9" relative="1" as="geometry">
            <mxPoint x="90" y="480" as="sourcePoint"/>
            <mxPoint x="354" y="489" as="targetPoint"/>
            <mxPoint as="offset"/>
          </mxGeometry>
        </mxCell>
        <mxCell id="9rw7oaXcv6XRZWg7OotB-32" value="{ ... g(1,2) ... }" style="html=1;verticalAlign=bottom;endArrow=open;dashed=1;endSize=8;exitX=-0.133;exitY=0.479;exitDx=0;exitDy=0;exitPerimeter=0;entryX=0.96;entryY=0.492;entryDx=0;entryDy=0;entryPerimeter=0;startArrow=oval;startFill=1;" parent="9rw7oaXcv6XRZWg7OotB-1" target="9rw7oaXcv6XRZWg7OotB-40" edge="1">
          <mxGeometry x="-0.227" y="8" relative="1" as="geometry">
            <mxPoint x="90" y="502" as="targetPoint"/>
            <mxPoint x="353.6700000000001" y="500.673" as="sourcePoint"/>
            <Array as="points"/>
            <mxPoint as="offset"/>
          </mxGeometry>
        </mxCell>
        <mxCell id="9rw7oaXcv6XRZWg7OotB-36" value="connect" style="html=1;verticalAlign=bottom;endArrow=block;exitX=1.006;exitY=0.643;exitDx=0;exitDy=0;exitPerimeter=0;entryX=-0.141;entryY=0.404;entryDx=0;entryDy=0;entryPerimeter=0;" parent="9rw7oaXcv6XRZWg7OotB-1" source="9rw7oaXcv6XRZWg7OotB-39" target="22y1QajGRE7wkvt_u-uF-30" edge="1">
          <mxGeometry x="0.1652" relative="1" as="geometry">
            <mxPoint x="100" y="620" as="sourcePoint"/>
            <mxPoint as="offset"/>
          </mxGeometry>
        </mxCell>
        <mxCell id="22y1QajGRE7wkvt_u-uF-6" value="get spacewar" style="html=1;verticalAlign=bottom;endArrow=block;exitX=1.4;exitY=0.124;exitDx=0;exitDy=0;exitPerimeter=0;" edge="1" parent="9rw7oaXcv6XRZWg7OotB-1" source="9rw7oaXcv6XRZWg7OotB-40">
          <mxGeometry relative="1" as="geometry">
            <mxPoint x="100" y="240" as="sourcePoint"/>
            <mxPoint x="270" y="253" as="targetPoint"/>
            <Array as="points"/>
          </mxGeometry>
        </mxCell>
        <mxCell id="22y1QajGRE7wkvt_u-uF-7" value="App.js" style="html=1;verticalAlign=bottom;endArrow=open;dashed=1;endSize=8;exitX=0;exitY=0.95;entryX=1;entryY=0.161;entryDx=0;entryDy=0;entryPerimeter=0;" edge="1" source="22y1QajGRE7wkvt_u-uF-5" parent="9rw7oaXcv6XRZWg7OotB-1" target="9rw7oaXcv6XRZWg7OotB-40">
          <mxGeometry x="-0.0695" relative="1" as="geometry">
            <mxPoint x="195" y="306" as="targetPoint"/>
            <mxPoint as="offset"/>
          </mxGeometry>
        </mxCell>
        <mxCell id="22y1QajGRE7wkvt_u-uF-5" value="" style="html=1;points=[];perimeter=orthogonalPerimeter;" vertex="1" parent="9rw7oaXcv6XRZWg7OotB-1">
          <mxGeometry x="267" y="250" width="10" height="30" as="geometry"/>
        </mxCell>
        <mxCell id="22y1QajGRE7wkvt_u-uF-16" value="get games" style="html=1;verticalAlign=bottom;endArrow=block;" edge="1" parent="9rw7oaXcv6XRZWg7OotB-1" target="9rw7oaXcv6XRZWg7OotB-17">
          <mxGeometry x="-0.0541" width="80" relative="1" as="geometry">
            <mxPoint x="82.5" y="309.5" as="sourcePoint"/>
            <mxPoint x="267.5" y="309.5" as="targetPoint"/>
            <mxPoint x="1" as="offset"/>
          </mxGeometry>
        </mxCell>
        <mxCell id="22y1QajGRE7wkvt_u-uF-17" value="docker start" style="html=1;verticalAlign=bottom;startArrow=oval;startFill=1;endArrow=block;startSize=8;dashed=1;" edge="1" parent="9rw7oaXcv6XRZWg7OotB-1" target="22y1QajGRE7wkvt_u-uF-30">
          <mxGeometry x="-0.125" width="60" relative="1" as="geometry">
            <mxPoint x="445" y="510" as="sourcePoint"/>
            <mxPoint x="505" y="510" as="targetPoint"/>
            <mxPoint as="offset"/>
          </mxGeometry>
        </mxCell>
        <mxCell id="22y1QajGRE7wkvt_u-uF-18" value="{ g1 .. gN }" style="html=1;verticalAlign=bottom;endArrow=open;dashed=1;endSize=8;" edge="1" parent="9rw7oaXcv6XRZWg7OotB-1" source="22y1QajGRE7wkvt_u-uF-14">
          <mxGeometry x="-0.667" y="10" relative="1" as="geometry">
            <mxPoint x="84.75" y="330.0000000000001" as="targetPoint"/>
            <mxPoint as="offset"/>
            <mxPoint x="350" y="330" as="sourcePoint"/>
          </mxGeometry>
        </mxCell>
        <mxCell id="22y1QajGRE7wkvt_u-uF-19" value="" style="shape=umlLifeline;participant=umlEntity;perimeter=lifelinePerimeter;whiteSpace=wrap;html=1;container=1;collapsible=0;recursiveResize=0;verticalAlign=top;spacingTop=36;labelBackgroundColor=#ffffff;outlineConnect=0;" vertex="1" parent="9rw7oaXcv6XRZWg7OotB-1">
          <mxGeometry x="510" y="54" width="40" height="856" as="geometry"/>
        </mxCell>
        <mxCell id="22y1QajGRE7wkvt_u-uF-30" value="" style="html=1;points=[];perimeter=orthogonalPerimeter;" vertex="1" parent="22y1QajGRE7wkvt_u-uF-19">
          <mxGeometry x="15" y="450" width="10" height="220" as="geometry"/>
        </mxCell>
        <mxCell id="22y1QajGRE7wkvt_u-uF-20" value="Docker" style="text;html=1;strokeColor=none;fillColor=none;align=center;verticalAlign=middle;whiteSpace=wrap;rounded=0;" vertex="1" parent="9rw7oaXcv6XRZWg7OotB-1">
          <mxGeometry x="510" y="30" width="40" height="20" as="geometry"/>
        </mxCell>
        <mxCell id="22y1QajGRE7wkvt_u-uF-23" value="get games" style="html=1;verticalAlign=bottom;endArrow=block;" edge="1" parent="9rw7oaXcv6XRZWg7OotB-1" target="9rw7oaXcv6XRZWg7OotB-17">
          <mxGeometry x="-0.0541" width="80" relative="1" as="geometry">
            <mxPoint x="82.5" y="419.5" as="sourcePoint"/>
            <mxPoint x="267.5" y="419.5" as="targetPoint"/>
            <mxPoint x="1" as="offset"/>
          </mxGeometry>
        </mxCell>
        <mxCell id="22y1QajGRE7wkvt_u-uF-24" value="{ ... g(1,?) ... }" style="html=1;verticalAlign=bottom;endArrow=open;dashed=1;endSize=8;exitX=-0.08;exitY=0.795;exitDx=0;exitDy=0;exitPerimeter=0;" edge="1" parent="9rw7oaXcv6XRZWg7OotB-1" source="22y1QajGRE7wkvt_u-uF-22">
          <mxGeometry x="-0.078" y="10" relative="1" as="geometry">
            <mxPoint x="84.75" y="440.0000000000001" as="targetPoint"/>
            <mxPoint as="offset"/>
            <mxPoint x="265.25" y="440.0000000000001" as="sourcePoint"/>
          </mxGeometry>
        </mxCell>
        <mxCell id="22y1QajGRE7wkvt_u-uF-25" value="" style="html=1;points=[];perimeter=orthogonalPerimeter;" vertex="1" parent="9rw7oaXcv6XRZWg7OotB-1">
          <mxGeometry x="435" y="480" width="10" height="40" as="geometry"/>
        </mxCell>
        <mxCell id="22y1QajGRE7wkvt_u-uF-28" value="get games" style="html=1;verticalAlign=bottom;endArrow=block;entryX=-0.435;entryY=0.727;entryDx=0;entryDy=0;entryPerimeter=0;" edge="1" parent="9rw7oaXcv6XRZWg7OotB-1" target="9rw7oaXcv6XRZWg7OotB-30">
          <mxGeometry x="0.0582" relative="1" as="geometry">
            <mxPoint x="180" y="529.4100000000001" as="sourcePoint"/>
            <mxPoint as="offset"/>
            <mxPoint x="350" y="529" as="targetPoint"/>
            <Array as="points">
              <mxPoint x="310" y="529.4100000000001"/>
            </Array>
          </mxGeometry>
        </mxCell>
        <mxCell id="22y1QajGRE7wkvt_u-uF-29" value="{ ... g(1,2) ... }" style="html=1;verticalAlign=bottom;endArrow=open;dashed=1;endSize=8;" edge="1" parent="9rw7oaXcv6XRZWg7OotB-1">
          <mxGeometry x="-0.227" y="8" relative="1" as="geometry">
            <mxPoint x="180" y="550" as="targetPoint"/>
            <mxPoint x="350" y="550" as="sourcePoint"/>
            <Array as="points"/>
            <mxPoint as="offset"/>
          </mxGeometry>
        </mxCell>
        <mxCell id="22y1QajGRE7wkvt_u-uF-32" value="connect" style="html=1;verticalAlign=bottom;endArrow=block;entryX=-0.024;entryY=0.591;entryDx=0;entryDy=0;entryPerimeter=0;" edge="1" parent="9rw7oaXcv6XRZWg7OotB-1" source="9rw7oaXcv6XRZWg7OotB-40" target="22y1QajGRE7wkvt_u-uF-30">
          <mxGeometry x="0.1652" relative="1" as="geometry">
            <mxPoint x="190.05999999999995" y="601.9599999999998" as="sourcePoint"/>
            <mxPoint as="offset"/>
            <mxPoint x="533.5900000000001" y="602.8800000000001" as="targetPoint"/>
          </mxGeometry>
        </mxCell>
        <mxCell id="22y1QajGRE7wkvt_u-uF-33" value="disconnect" style="html=1;verticalAlign=bottom;endArrow=block;exitX=1.006;exitY=0.643;exitDx=0;exitDy=0;exitPerimeter=0;entryX=-0.141;entryY=0.404;entryDx=0;entryDy=0;entryPerimeter=0;" edge="1" parent="9rw7oaXcv6XRZWg7OotB-1">
          <mxGeometry x="0.1652" relative="1" as="geometry">
            <mxPoint x="179.99999999999994" y="669.9999999999998" as="sourcePoint"/>
            <mxPoint as="offset"/>
            <mxPoint x="523.5300000000002" y="670.9200000000001" as="targetPoint"/>
          </mxGeometry>
        </mxCell>
        <mxCell id="22y1QajGRE7wkvt_u-uF-34" value="disconnect" style="html=1;verticalAlign=bottom;endArrow=block;entryX=-0.259;entryY=0.891;entryDx=0;entryDy=0;entryPerimeter=0;" edge="1" parent="9rw7oaXcv6XRZWg7OotB-1" target="22y1QajGRE7wkvt_u-uF-30">
          <mxGeometry x="0.1634" y="-10" relative="1" as="geometry">
            <mxPoint x="90" y="700" as="sourcePoint"/>
            <mxPoint x="1" as="offset"/>
            <mxPoint x="519.7600000000002" y="700.0000000000002" as="targetPoint"/>
          </mxGeometry>
        </mxCell>
        <mxCell id="22y1QajGRE7wkvt_u-uF-36" value="exits" style="text;html=1;strokeColor=none;fillColor=none;align=center;verticalAlign=middle;whiteSpace=wrap;rounded=0;" vertex="1" parent="9rw7oaXcv6XRZWg7OotB-1">
          <mxGeometry x="532" y="707" width="40" height="20" as="geometry"/>
        </mxCell>
        <mxCell id="22y1QajGRE7wkvt_u-uF-37" value="starts" style="text;html=1;strokeColor=none;fillColor=none;align=center;verticalAlign=middle;whiteSpace=wrap;rounded=0;" vertex="1" parent="9rw7oaXcv6XRZWg7OotB-1">
          <mxGeometry x="535" y="500" width="40" height="20" as="geometry"/>
        </mxCell>
        <mxCell id="22y1QajGRE7wkvt_u-uF-38" value="heartbeat" style="html=1;verticalAlign=bottom;startArrow=oval;startFill=1;endArrow=block;startSize=8;dashed=1;entryX=1;entryY=0.773;entryDx=0;entryDy=0;entryPerimeter=0;" edge="1" parent="9rw7oaXcv6XRZWg7OotB-1" source="22y1QajGRE7wkvt_u-uF-30" target="9rw7oaXcv6XRZWg7OotB-30">
          <mxGeometry x="-0.0625" y="15" width="60" relative="1" as="geometry">
            <mxPoint x="610" y="560" as="sourcePoint"/>
            <mxPoint x="535" y="520" as="targetPoint"/>
            <mxPoint as="offset"/>
          </mxGeometry>
        </mxCell>
      </root>
    </mxGraphModel>
  </diagram>
</mxfile>
